<svg width="122" height="36" viewBox="0 0 122 36" fill="none" xmlns="http://www.w3.org/2000/svg">
<path fill-rule="evenodd" clip-rule="evenodd" d="M69.7956 11.4258C74.9401 11.4258 78.823 15.1765 78.823 20.1247C78.823 25.0728 74.9401 28.8241 69.7956 28.8241C64.6511 28.8241 60.7682 25.0728 60.7682 20.1247C60.7682 15.1765 64.6511 11.4258 69.7956 11.4258ZM109.149 11.5056C114.713 11.5056 117.256 15.8151 117.256 20.524C117.256 20.8332 117.256 21.1325 117.225 21.4417C117.207 21.6287 117.118 21.7455 116.942 21.7594L116.905 21.7608H105.586C106.046 23.806 107.388 25.0329 109.67 25.0329C111.05 25.0329 112.181 24.6839 113.533 23.5367C113.664 23.425 113.803 23.409 113.943 23.5126L113.973 23.5367L116.175 25.512C116.325 25.6415 116.355 25.8113 116.215 25.9709C114.564 27.8561 112.411 28.8241 109.609 28.8241C104.565 28.8241 100.902 25.2924 100.902 20.1449C100.902 15.4163 104.285 11.5056 109.149 11.5056ZM90.6936 7.55493C90.8936 7.55493 91.0136 7.67457 91.0136 7.87398V11.8246H94.6165C94.8165 11.8246 94.9366 11.9442 94.9366 12.1441V15.4961C94.9366 15.6955 94.8165 15.8151 94.6165 15.8151H91.0136V23.0576C91.0136 24.1551 91.5041 24.674 92.4747 24.674C93.1954 24.674 93.7857 24.614 94.4965 24.255C94.7168 24.1452 94.8768 24.2151 94.8768 24.4347V27.5671C94.8768 27.7266 94.8165 27.8664 94.6565 27.9659C93.7857 28.505 92.6348 28.8241 91.1337 28.8241C88.5414 28.8241 86.6901 27.896 86.3394 24.9433C86.3019 24.6253 86.2913 24.2021 86.2901 23.649L86.29 15.8151H84.6081C84.4081 15.8151 84.288 15.6955 84.288 15.4961V12.1441C84.288 11.9442 84.4081 11.8246 84.6081 11.8246H86.29V7.87398C86.29 7.67457 86.41 7.55493 86.6101 7.55493H90.6936ZM49.0385 11.4258C52.0505 11.4258 53.9923 13.1116 54.5331 15.9348C54.6329 16.4537 54.6828 17.0721 54.6828 17.8604V28.1057C54.6828 28.3051 54.5628 28.4252 54.3627 28.4252H50.2793C50.0792 28.4252 49.9592 28.3051 49.9592 28.1057V19.0873C49.9592 16.8727 48.8977 15.6955 47.0967 15.6955C45.2948 15.6955 44.1538 16.8525 44.1538 19.0873V28.1057C44.1538 28.3051 44.0343 28.4252 43.8337 28.4252H39.7503C39.5502 28.4252 39.4297 28.3051 39.4297 28.1057V12.1441C39.4297 11.9442 39.5502 11.8246 39.7503 11.8246H43.8337C44.0343 11.8246 44.1538 11.9442 44.1538 12.1441V14.0392C45.7251 11.9443 47.5566 11.4258 49.0385 11.4258ZM69.7956 15.4956C67.1135 15.4956 65.4321 17.6506 65.4321 20.1247C65.4321 22.5988 67.1135 24.7538 69.7956 24.7538C72.4782 24.7538 74.1592 22.5988 74.1592 20.1247C74.1592 17.6506 72.4782 15.4956 69.7956 15.4956ZM109.149 15.2765C107.267 15.2765 106.044 16.5528 105.51 18.7253L105.486 18.8278H112.662C112.331 16.7531 111.191 15.2765 109.149 15.2765Z" fill="white"/>
<path fill-rule="evenodd" clip-rule="evenodd" d="M14.649 16.3338H11.346C10.9558 16.3338 10.8259 16.3136 10.6253 16.254C10.0854 16.0945 9.66459 15.5559 9.66459 14.9173C9.66459 14.2787 10.0854 13.7401 10.6253 13.5806C10.8259 13.5205 10.9558 13.5008 11.346 13.5008H13.4877V11.366C13.4877 10.9765 13.508 10.847 13.5683 10.6476C13.7283 10.0987 14.2687 9.68951 14.9088 9.68951C15.5495 9.68951 16.0904 10.1085 16.2504 10.6476C16.3102 10.847 16.3304 10.9765 16.3304 11.366V14.6578C16.3304 14.8572 16.3304 15.0571 16.2904 15.2363C16.1803 15.7356 15.7298 16.1841 15.2294 16.2939C15.0496 16.3338 14.8491 16.3338 14.649 16.3338ZM25.258 28.425H7.54309V12.8721C7.54309 12.6727 7.61323 12.5033 7.75302 12.3635L12.3472 7.78411C12.487 7.64477 12.6574 7.57486 12.8575 7.57486H25.258V28.425ZM4.86095 10.2587C4.39022 10.7274 4.08051 11.3162 4.01975 11.9745C4.00987 12.0843 4 12.2438 4 12.4034V29.9912C4 30.2206 4.00987 30.3402 4.01975 30.4303C4.10027 31.1782 4.78043 31.8567 5.53123 31.9364C5.62163 31.9463 5.74165 31.9566 5.97183 31.9566H26.8293C27.0595 31.9566 27.1795 31.9463 27.2699 31.9364C28.0202 31.8567 28.7009 31.1782 28.7809 30.4303C28.7912 30.3402 28.8006 30.2206 28.8006 29.9912V6.00868C28.8006 5.77924 28.7912 5.65961 28.7809 5.5695C28.7009 4.82162 28.0202 4.14316 27.2699 4.0634C27.1795 4.05355 27.0595 4.04321 26.8293 4.04321H12.3872C12.2272 4.04321 12.0667 4.05355 11.957 4.0634C11.2961 4.12297 10.7058 4.43217 10.2351 4.90138L4.86095 10.2587Z" fill="white"/>
</svg>
