<?xml version="1.0" encoding="utf-8"?>
<!-- Generator: Adobe Illustrator 21.0.0, SVG Export Plug-In . SVG Version: 6.00 Build 0)  -->
<svg version="1.1" id="Layer_1" xmlns="http://www.w3.org/2000/svg" xmlns:xlink="http://www.w3.org/1999/xlink" x="0px" y="0px"
	 viewBox="0 0 512 512" style="enable-background:new 0 0 512 512;" xml:space="preserve">
<g>
	<path d="M98.5,98.5C44.2,98.5,0,142.6,0,196.9s44.2,98.5,98.5,98.5h118.2c10.8,0,19.7,8.8,19.7,19.7s-8.8,19.7-19.7,19.7H39.4
		C17.6,334.8,0,352.4,0,374.2s17.6,39.4,39.4,39.4h177.2c54.3,0,98.5-44.2,98.5-98.5s-44.2-98.5-98.5-98.5H98.5
		c-10.8,0-19.7-8.8-19.7-19.7s8.8-19.7,19.7-19.7h137.8c21.7,0,39.4-17.6,39.4-39.4c0-21.7-17.6-39.4-39.4-39.4H98.5z M304.2,98.5
		c6.8,11.6,10.9,25,10.9,39.4c0,14.5-4.3,27.8-11,39.4h109.5c10.9,0,19.7,8.8,19.7,19.7v118.2c0,10.9-8.8,19.7-19.7,19.7h-60.7
		c-4.4,30.6-18.8,58.1-40,78.8h120.3c43.5,0,78.8-35.3,78.8-78.8V177.2c0-43.5-35.3-78.8-78.8-78.8H304.2z" fill="white"/>
</g>
</svg>
