<svg width="26" height="28" viewBox="0 0 26 28" fill="none" xmlns="http://www.w3.org/2000/svg">
<path fill-rule="evenodd" clip-rule="evenodd" d="M26 0H4.44055e-05V24.5106H0V27.3191L9.17025 27.3191L5.08518 24.5106H5.08507V13.9805L8.61688 14.1423C8.6205 14.1423 8.62416 14.1421 8.62798 14.1418L8.62995 14.1417C8.92544 14.1459 9.21895 14.0109 9.40531 13.753L10.6147 12.2246L10.6167 12.2265C10.6215 12.2188 10.6267 12.2114 10.6319 12.204L10.6319 12.204L10.6372 12.1965L10.6928 12.1259C10.7944 12.0151 10.8546 12.038 10.9945 12.271C11.2609 12.7155 11.9277 14.071 12.1055 14.4934C12.1823 14.6754 12.2226 14.8379 12.1496 15.0536C12.1472 15.0576 12.1446 15.0613 12.1421 15.0649C12.141 15.0664 12.14 15.0678 12.139 15.0693C12.1365 15.0729 12.1341 15.0765 12.132 15.0804L10.2819 18.473L6.78405 24.0282C6.78405 24.0282 8.80674 24.1702 9.41667 23.7447C10.0266 23.3192 12.3791 19.739 12.3791 19.739L14.2239 16.9665C14.3122 16.8518 14.422 16.7007 14.4557 16.6184L14.5197 16.522C14.5225 16.5178 14.5247 16.5135 14.527 16.5092C14.5287 16.5058 14.5305 16.5024 14.5325 16.4991C14.5684 16.4828 14.6038 16.52 14.6168 16.6495L14.6178 16.6508L15.0571 19.9502C15.0685 20.0813 15.1006 20.2049 15.1496 20.3196C15.3307 20.7694 15.7706 21.0871 16.2851 21.0871L20.9149 20.8833V24.5106L20.915 24.5106L25 27.3191H26V24.5106V24.5106V0ZM20.9149 18.8412V2.04256H5.08507V12.4253L8.12266 12.2857L9.5099 10.1758C9.94985 9.404 10.8752 9.0621 11.4165 8.93724C12.2834 8.73751 17.0089 8.95914 17.0089 8.95914C17.4502 9.0239 17.6836 9.24059 17.9173 9.52399L20.3152 12.1756C20.6146 12.4746 20.614 12.9597 20.3152 13.2588C20.0164 13.5579 19.5314 13.5579 19.2319 13.2588L16.6082 10.856L15.1294 11.1348C15.4321 11.646 16.4101 13.2961 16.7281 13.7824C17.0278 14.241 17.2295 14.9945 17.2998 15.7077C17.3116 15.7623 17.3207 15.8172 17.3256 15.8734L17.4508 18.6887L20.9149 18.8412ZM12.2644 6.56352C12.2644 7.65036 11.3829 8.53159 10.2963 8.53159C9.20945 8.53159 8.32857 7.65036 8.32857 6.56352C8.32857 5.47668 9.20949 4.59576 10.2963 4.59576C11.3828 4.59576 12.2644 5.47668 12.2644 6.56352ZM6.8647 24.5334L11.2051 27.3192H14.7796C14.7796 27.3192 10.5385 25.1915 9.92853 24.766C9.3186 24.3405 6.8647 24.5334 6.8647 24.5334Z" fill="white"/>
</svg>
